# xmcd CD database file generated by Grip 3.2.0
# 
# Track frame offsets:
#       150
#       11346
#       22694
#       35826
#       44385
#       60354
#       75031
#       90378
#       101252
#       115398
#       127836
#       143313
#       155482
#       166589
# 
# Disc length: 2341 seconds
# 
# Revision: 2
# Processed by: cddbd v1.5.2PL0 Copyright (c) Steve Scherf et al.
# Submitted via: Grip 3.2.0
# 
DISCID=8809230e
DTITLE=B.B. King - Original Blues Sessions [CD1]
DYEAR=2007
DGENRE=Blues
TTITLE0=BB's Blues
TTITLE1=She's Dynamite
TTITLE2=Questionaire Blues
TTITLE3=A New Way Of Driving
TTITLE4=The Other Night Blues
TTITLE5=B.B.'s Boogie
TTITLE6=Walkin' And Cryin'
TTITLE7=Everything I Do Is Wrong
TTITLE8=She Don't Move Me No More
TTITLE9=I Gotta Find My Baby
TTITLE10=My Own Fault Darlin'
TTITLE11=Miss Martha King
TTITLE12=When Your Baby Packs Up And Goes
TTITLE13=My Baby's Gone
EXTD=
EXTT0=
EXTT1=
EXTT2=
EXTT3=
EXTT4=
EXTT5=
EXTT6=
EXTT7=
EXTT8=
EXTT9=
EXTT10=
EXTT11=
EXTT12=
EXTT13=
PLAYORDER=
